HIERARCHY
ROOT Hips
{
	OFFSET -0.001795 -0.223333 0.028219
	CHANNELS 6 Xposition Yposition Zposition Zrotation Yrotation Xrotation 
	JOINT LeftUpLeg
	{
		OFFSET 0.069520 -0.091406 -0.006815
		CHANNELS 3 Zrotation Yrotation Xrotation
		JOINT LeftLeg
		{
			OFFSET 0.034277 -0.375199 -0.004496
			CHANNELS 3 Zrotation Yrotation Xrotation
			JOINT LeftFoot
			{
				OFFSET -0.013596 -0.397961 -0.043693
				CHANNELS 3 Zrotation Yrotation Xrotation
				JOINT LeftToe
				{
					OFFSET 0.026358 -0.055791 0.119288
					CHANNELS 3 Zrotation Yrotation Xrotation
					End Site
					{
						OFFSET 0.000000 0.000000 0.000000
					}
				}
			}
		}
	}
	JOINT RightUpLeg
	{
		OFFSET -0.067670 -0.090522 -0.004320
		CHANNELS 3 Zrotation Yrotation Xrotation
		JOINT RightLeg
		{
			OFFSET -0.038290 -0.382569 -0.008850
			CHANNELS 3 Zrotation Yrotation Xrotation
			JOINT RightFoot
			{
				OFFSET 0.015774 -0.398415 -0.042312
				CHANNELS 3 Zrotation Yrotation Xrotation
				JOINT RightToe
				{
					OFFSET -0.025372 -0.048144 0.123348
					CHANNELS 3 Zrotation Yrotation Xrotation
					End Site
					{
						OFFSET 0.000000 0.000000 0.000000
					}
				}
			}
		}
	}
	JOINT Spine
	{
		OFFSET -0.002533 0.108963 -0.026696
		CHANNELS 3 Zrotation Yrotation Xrotation
		JOINT Spine1
		{
			OFFSET 0.005487 0.135180 0.001092
			CHANNELS 3 Zrotation Yrotation Xrotation
			JOINT Spine2
			{
				OFFSET 0.001457 0.052922 0.025425
				CHANNELS 3 Zrotation Yrotation Xrotation
				JOINT Neck
				{
					OFFSET -0.002778 0.213870 -0.042857
					CHANNELS 3 Zrotation Yrotation Xrotation
					JOINT Head
					{
						OFFSET 0.005152 0.064970 0.051349
						CHANNELS 3 Zrotation Yrotation Xrotation
						End Site
						{
							OFFSET 0.000000 0.000000 0.000000
						}
					}
				}
				JOINT LeftShoulder
				{
					OFFSET 0.078845 0.121749 -0.034090
					CHANNELS 3 Zrotation Yrotation Xrotation
					JOINT LeftArm
					{
						OFFSET 0.090977 0.030469 -0.008868
						CHANNELS 3 Zrotation Yrotation Xrotation
						JOINT LeftForeArm
						{
							OFFSET 0.259612 -0.012772 -0.027456
							CHANNELS 3 Zrotation Yrotation Xrotation
							JOINT LeftHand
							{
								OFFSET 0.249234 0.008986 -0.001171
								CHANNELS 3 Zrotation Yrotation Xrotation
								End Site
								{
									OFFSET 0.000000 0.000000 0.000000
								}
							}
						}
					}
				}
				JOINT RightShoulder
				{
					OFFSET -0.081759 0.118833 -0.038615
					CHANNELS 3 Zrotation Yrotation Xrotation
					JOINT RightArm
					{
						OFFSET -0.096012 0.032551 -0.009143
						CHANNELS 3 Zrotation Yrotation Xrotation
						JOINT RightForeArm
						{
							OFFSET -0.253742 -0.013329 -0.021401
							CHANNELS 3 Zrotation Yrotation Xrotation
							JOINT RightHand
							{
								OFFSET -0.255298 0.007772 -0.005559
								CHANNELS 3 Zrotation Yrotation Xrotation
								End Site
								{
									OFFSET 0.000000 0.000000 0.000000
								}
							}
						}
					}
				}
			}
		}
	}
}
MOTION
Frames: 14
Frame Time: 0.050000
-1.892238 0.885080 -0.171714 -9.839048 -83.045921 7.561111 -3.120168 3.157920 -24.446971 -0.776275 2.264538 9.567454 -5.740295 -7.519575 7.645454 0.000000 0.000000 0.000000 0.808192 5.129946 21.030061 1.423971 2.544443 17.934395 7.370461 -8.245539 25.869635 0.000000 0.000000 0.000000 4.143598 -0.295214 6.309228 -5.191440 7.577334 8.045049 -3.335689 11.923760 -5.099647 6.519743 -4.863746 -7.632394 0.000000 0.000000 0.000000 -35.734585 -2.022579 10.375084 -29.806305 11.151160 -7.956691 7.590206 -71.122483 0.200912 0.000000 0.000000 0.000000 16.622454 13.266262 -2.311175 36.803163 -2.563529 -1.569308 100.349440 76.436812 76.637210 0.000000 0.000000 0.000000 
-1.946197 0.886276 -0.159635 -10.633894 -82.411458 10.026038 -4.180329 2.351885 -23.289396 1.003457 2.003949 10.911931 -6.621853 -7.524774 0.833017 0.000000 0.000000 0.000000 1.667856 3.890773 18.729518 0.752761 4.004053 22.350141 7.810362 -8.656748 27.180266 0.000000 0.000000 0.000000 3.323804 -0.295639 5.959078 -7.500224 7.045247 4.603292 -0.054871 11.044195 -3.216596 6.199386 -4.713421 -9.558676 0.000000 0.000000 0.000000 -35.940577 -0.057715 10.616313 -31.577460 9.873874 -8.518720 13.726766 -70.133579 -3.284916 0.000000 0.000000 0.000000 16.965732 13.248154 -3.395330 38.420301 -2.468762 -1.367095 96.958320 75.582161 70.545831 0.000000 0.000000 0.000000 
-2.000464 0.888866 -0.147160 -7.191200 -80.924905 7.144333 -5.120213 1.559821 -22.166043 2.010467 2.786110 14.903016 -8.277500 -9.162395 -5.209722 0.000000 0.000000 0.000000 1.573506 2.993159 16.275743 1.637017 5.663264 27.435991 9.186306 -7.890820 28.281568 0.000000 0.000000 0.000000 2.165469 -0.249203 4.611273 -6.894483 6.415308 4.527388 -0.538580 11.415618 -3.177924 6.113882 -4.753805 -9.588404 0.000000 0.000000 0.000000 -37.222084 0.186117 10.548621 -29.395644 9.927811 -7.996006 18.022961 -71.329399 -6.876181 0.000000 0.000000 0.000000 19.050129 10.711542 -5.083883 37.263024 -5.541488 -2.181526 96.101747 71.302088 66.424086 0.000000 0.000000 0.000000 
-2.054117 0.894707 -0.133738 -3.389436 -78.788122 3.524667 -5.955040 0.634046 -20.050072 2.544743 3.544667 17.922906 -9.577469 -11.380954 -8.945016 0.000000 0.000000 0.000000 -0.266428 1.813924 10.563198 6.828464 9.022927 38.602256 10.082656 -5.214962 25.817896 0.000000 0.000000 0.000000 -0.072734 -0.119220 3.587080 -5.872696 6.244260 5.831276 -0.605501 10.545055 -4.491925 6.119403 -4.661031 -9.709001 0.000000 0.000000 0.000000 -37.555605 -0.012459 9.975473 -29.379417 9.561006 -7.715887 20.350569 -71.551081 -8.667587 0.000000 0.000000 0.000000 18.940066 8.559566 -5.448685 38.842298 -8.916901 -3.714943 87.418811 67.550149 55.516487 0.000000 0.000000 0.000000 
-2.104787 0.903596 -0.119862 -2.719598 -76.622110 1.775678 -6.364907 -0.386346 -15.465465 2.991315 3.565887 18.479070 -10.215434 -12.667742 -10.895086 0.000000 0.000000 0.000000 -1.196535 1.030023 5.390612 12.248180 11.300303 47.973260 4.830537 -6.973559 19.364986 0.000000 0.000000 0.000000 -0.108328 -0.120408 3.907059 -5.691917 5.740256 5.388414 -0.480481 8.861396 -3.233106 5.846242 -4.561607 -9.156395 0.000000 0.000000 0.000000 -36.516769 0.008083 10.095728 -30.139283 9.114028 -7.871904 26.682813 -73.346670 -13.279374 0.000000 0.000000 0.000000 18.871490 7.590707 -6.035011 38.326686 -11.446491 -4.570596 81.318713 63.919470 47.130819 0.000000 0.000000 0.000000 
-2.151679 0.913564 -0.106223 -3.228575 -74.956095 1.153972 -6.745837 -0.913766 -10.472380 3.647512 3.015125 17.682478 -10.442487 -13.286670 -11.491461 0.000000 0.000000 0.000000 -3.148588 0.843260 -1.188404 19.036598 11.241939 54.479976 -1.138881 -10.548884 12.467101 0.000000 0.000000 0.000000 0.582454 -0.168396 4.578253 -6.768747 6.497461 5.909856 0.501101 5.888844 -3.724110 4.435752 -3.624490 -9.495435 0.000000 0.000000 0.000000 -34.248433 0.111929 9.833607 -31.599028 8.167556 -7.895605 28.971564 -72.523156 -14.028854 0.000000 0.000000 0.000000 18.471834 6.672096 -6.689618 38.282804 -13.859405 -5.317214 76.232108 60.190736 39.666584 0.000000 0.000000 0.000000 
-2.195913 0.924581 -0.093148 -4.875166 -72.342333 1.356836 -6.976718 -0.904178 -5.359652 5.118808 2.005119 16.578606 -10.867847 -14.757804 -10.686280 0.000000 0.000000 0.000000 -4.568185 1.141133 -7.379437 23.001553 9.933790 56.266772 -4.905006 -15.642281 11.523112 0.000000 0.000000 0.000000 1.911417 -0.234738 4.971632 -6.360040 6.475482 6.729046 0.224303 2.547300 -3.954235 2.920909 -2.661775 -9.287961 0.000000 0.000000 0.000000 -33.696717 0.442572 9.999817 -31.129165 6.586434 -7.558743 34.117901 -71.325600 -17.147352 0.000000 0.000000 0.000000 18.261240 6.585861 -7.116515 38.082842 -14.725128 -5.438476 70.023308 56.897759 32.378115 0.000000 0.000000 0.000000 
-2.237444 0.933029 -0.081435 -6.630134 -70.033911 1.457996 -6.251781 -0.360769 -0.471365 5.847724 1.339524 15.650590 -11.376496 -16.594224 -9.648239 0.000000 0.000000 0.000000 -5.061435 1.650401 -12.318635 20.868753 9.557360 53.622502 -7.220761 -17.878418 7.701082 0.000000 0.000000 0.000000 3.094491 -0.269995 6.506152 -6.521022 5.901678 5.564930 0.642214 0.965862 -2.243073 2.031336 -2.289812 -10.728582 0.000000 0.000000 0.000000 -31.338831 0.521905 9.597227 -32.188498 3.397446 -7.157331 34.303474 -71.670340 -16.372356 0.000000 0.000000 0.000000 19.319174 6.473894 -7.956098 36.132168 -15.448541 -5.130416 65.786678 54.344006 28.289432 0.000000 0.000000 0.000000 
-2.277189 0.937288 -0.071510 -6.786059 -66.293475 1.382795 -6.310999 0.188146 2.780720 8.263811 0.129473 14.435555 -12.249212 -19.514916 -8.800820 0.000000 0.000000 0.000000 -5.115967 2.297571 -16.435247 13.537763 8.991747 45.914363 -6.616207 -15.591953 4.428026 0.000000 0.000000 0.000000 3.483360 -0.285554 6.727179 -5.927903 5.217946 5.291874 0.173032 -1.351066 -1.651141 1.972021 -2.294389 -10.894526 0.000000 0.000000 0.000000 -30.334243 -0.483275 10.258933 -31.341444 0.153474 -6.373667 44.510927 -69.993355 -22.852899 0.000000 0.000000 0.000000 19.797898 6.815264 -8.226820 35.400915 -16.370227 -5.155499 60.266439 50.717961 23.087080 0.000000 0.000000 0.000000 
-2.315824 0.936886 -0.062573 -6.617259 -62.644052 0.797211 -5.517664 0.876932 5.912485 9.767523 -0.609179 13.503563 -13.335264 -22.981427 -8.538696 0.000000 0.000000 0.000000 -5.271824 2.766301 -18.916178 5.284400 7.620854 36.386540 -4.086664 -10.239344 2.951084 0.000000 0.000000 0.000000 2.778125 -0.260672 7.384129 -4.747269 4.561773 5.895017 0.259954 -2.547302 -1.426006 1.904445 -2.313381 -12.391954 0.000000 0.000000 0.000000 -29.053046 -1.806798 10.398106 -30.649711 -3.051335 -5.463970 54.268599 -70.004963 -29.799872 0.000000 0.000000 0.000000 20.708302 7.691683 -7.997021 35.771399 -16.540046 -5.173739 53.669700 49.135011 19.417887 0.000000 0.000000 0.000000 
-2.354420 0.934322 -0.053531 -6.287547 -58.055375 0.237395 -4.833995 1.674856 9.143299 12.461474 -1.570601 11.565918 -14.523712 -27.111833 -8.220904 0.000000 0.000000 0.000000 -6.133497 2.939306 -20.112139 -0.048201 4.491371 24.655389 0.512038 -3.793012 5.196310 0.000000 0.000000 0.000000 2.395058 -0.230639 8.481684 -3.567099 3.528491 5.522553 -0.374402 -3.218254 -1.103146 2.333927 -2.554127 -13.361821 0.000000 0.000000 0.000000 -28.708529 -4.175993 11.312203 -29.388487 -4.912259 -4.788170 61.746349 -68.752639 -35.170936 0.000000 0.000000 0.000000 21.802748 7.567477 -7.989902 35.676385 -17.790487 -5.557828 50.058787 46.365079 17.057139 0.000000 0.000000 0.000000 
-2.394287 0.929072 -0.043244 -4.645134 -54.855870 -1.049837 -4.163531 2.196594 11.196210 13.412637 -1.899763 11.246139 -15.589883 -30.622858 -7.877242 0.000000 0.000000 0.000000 -7.695648 2.992164 -20.845085 -2.149158 1.385292 11.181852 6.375195 2.111453 10.349435 0.000000 0.000000 0.000000 1.517582 -0.135237 9.609890 -3.325669 3.271734 5.704483 -0.333863 -4.484315 -1.954879 1.953182 -2.295939 -14.761897 0.000000 0.000000 0.000000 -28.307048 -5.109221 11.447754 -28.653674 -5.808901 -4.359439 70.498703 -69.306962 -42.455089 0.000000 0.000000 0.000000 22.698548 8.295707 -7.776247 35.882327 -18.791458 -5.792050 47.902368 45.332856 15.979784 0.000000 0.000000 0.000000 
-2.436519 0.922037 -0.031131 -4.444831 -52.024858 -0.695318 -3.444416 2.879474 13.810953 15.950994 -2.372458 9.291082 -16.095562 -33.249931 -7.948740 0.000000 0.000000 0.000000 -7.914856 3.115717 -21.903950 -2.765522 0.320309 2.618063 10.137623 6.284373 13.657981 0.000000 0.000000 0.000000 2.397051 -0.200487 10.252238 -1.931666 2.670540 6.685068 -1.724681 -5.492984 -3.725113 1.823406 -2.014103 -14.064416 0.000000 0.000000 0.000000 -27.556739 -5.074001 10.466762 -29.479495 -6.840508 -3.934971 72.833954 -69.419749 -44.390479 0.000000 0.000000 0.000000 23.517805 8.368549 -7.575526 35.161491 -19.965206 -5.957394 47.206578 45.790581 16.422846 0.000000 0.000000 0.000000 
-2.482619 0.914604 -0.017220 -4.058268 -49.019918 0.455678 -2.043288 2.903061 14.455240 17.334848 -2.603138 9.123414 -17.294473 -36.063991 -6.913361 0.000000 0.000000 0.000000 -8.723360 3.224132 -23.002045 -2.062819 0.224785 1.771730 11.297841 12.595127 11.585781 0.000000 0.000000 0.000000 2.353010 -0.263840 8.976831 -1.505186 2.393269 6.936914 -1.486987 -6.113107 -4.086360 1.083809 -1.497483 -13.325792 0.000000 0.000000 0.000000 -30.221237 -5.686445 11.446858 -27.679576 -6.940290 -3.841195 71.683594 -70.433864 -45.335469 0.000000 0.000000 0.000000 25.921109 9.305699 -7.812437 32.466484 -20.986231 -5.378408 45.358498 47.853589 17.312888 0.000000 0.000000 0.000000 
